# xmcd
#
# Track frame offsets:
#	150
#	19750
#	48325
#	76737
#	96807
#	139900
#	170545
#	197105
#	217097
#	239297
#
# Disc length: 3568 seconds
#
# Revision: 0
# Processed by: cddbd v1.4PL0 Copyright (c) Steve Scherf et al.
# Submitted via: dBpowerAMP V4.0
#
DISCID=850dee0a
DTITLE=Krzysztof Logan Tomaszewski - Bede Dla ciebie Kim Tylko Chcesz
DYEAR=1998
DGENRE=Ballad
TTITLE0=Nie oklamuj ze to milosc
TTITLE1=Love me truly
TTITLE2=Moja mala nostalgia
TTITLE3=Frantic
TTITLE4=Najpiekniejsi sa kochankowie 1983 -1
TTITLE5=Najpiekniejsi sa kochankowie 1983 -2
TTITLE6=Najpiekniejsi sa kochankowie 1983 -3
TTITLE7=Frantic 2
TTITLE8=Bede dla Ciebie kim tylko chcesz
TTITLE9=Kochaj naprawde
EXTD=
EXTT0=
EXTT1=
EXTT2=
EXTT3=
EXTT4=
EXTT5=
EXTT6=
EXTT7=
EXTT8=
EXTT9=
PLAYORDER=
